<svg id="flour" enable-background="new 0 0 300 300" height="512" viewBox="0 0 300 300" width="512" xmlns="http://www.w3.org/2000/svg"><g><circle cx="134.929" cy="130" fill="#edebdc" r="92"/><g fill="#4c241d"><path d="m66.929 50c-2.211 0-4-1.791-4-4v-8c0-2.209 1.789-4 4-4s4 1.791 4 4v8c0 2.209-1.79 4-4 4z"/><path d="m66.929 74c-2.211 0-4-1.791-4-4v-8c0-2.209 1.789-4 4-4s4 1.791 4 4v8c0 2.209-1.79 4-4 4z"/><path d="m58.929 58h-8c-2.211 0-4-1.791-4-4s1.789-4 4-4h8c2.211 0 4 1.791 4 4s-1.79 4-4 4z"/><path d="m82.929 58h-8c-2.211 0-4-1.791-4-4s1.789-4 4-4h8c2.211 0 4 1.791 4 4s-1.79 4-4 4z"/><circle cx="39.894" cy="119.278" r="4.276"/></g><g><path d="m98.929 106h156v156h-156z" fill="#e7d1c4"/><path d="m254.929 266h-156c-2.211 0-4-1.791-4-4v-156c0-2.209 1.789-4 4-4h156c2.211 0 4 1.791 4 4v156c0 2.209-1.79 4-4 4zm-152-8h148v-148h-148z" fill="#4c241d"/></g><g><path d="m252.929 106h-152c-5.523 0-10-4.477-10-10 0-5.523 4.477-10 10-10h152c5.523 0 10 4.477 10 10 0 5.523-4.478 10-10 10z" fill="#bf7e68"/><path d="m252.929 110h-152c-7.719 0-14-6.281-14-14s6.281-14 14-14h152c7.719 0 14 6.281 14 14s-6.282 14-14 14zm-152-20c-3.309 0-6 2.691-6 6s2.691 6 6 6h152c3.309 0 6-2.691 6-6s-2.691-6-6-6z" fill="#4c241d"/></g><g><path d="m182.929 86h-16v-8c0-4.418 3.582-8 8-8 4.418 0 8 3.582 8 8z" fill="#bf7e68"/><path d="m182.929 90h-16c-2.211 0-4-1.791-4-4v-8c0-6.617 5.383-12 12-12s12 5.383 12 12v8c0 2.209-1.79 4-4 4zm-12-8h8v-4c0-2.205-1.793-4-4-4s-4 1.795-4 4z" fill="#4c241d"/></g><g><path d="m143.225 218.168c-2.659.38-5.317 1.839-7.905 3.985-11.494-19.833-28.093-39.053-48.391-36.153-19.307 2.758-38.615 37.849-48.742 59.371-3.642 7.739 2.054 16.629 10.607 16.629h62.135 42.139 15.055c6.587 0 10.942-6.795 8.223-12.795-6.21-13.703-17.853-33.218-33.121-31.037z" fill="#fff"/><path d="m168.124 266h-119.328c-5.41 0-10.375-2.729-13.273-7.299-2.887-4.549-3.246-10.168-.957-15.033 12.484-26.521 31.602-58.744 51.797-61.627 17.531-2.508 34.781 9.377 50.188 34.375 2.062-1.182 4.105-1.922 6.109-2.207s0-.002.004-.002c17.25-2.451 29.816 16.777 37.328 33.348 1.844 4.068 1.5 8.734-.914 12.48-2.411 3.735-6.505 5.965-10.954 5.965zm-77.195-76.285c-1.133 0-2.277.08-3.434.244-12.816 1.83-29.469 22.648-45.688 57.115-1.137 2.408-.965 5.084.469 7.34 1.445 2.279 3.824 3.586 6.52 3.586h119.328c1.746 0 3.285-.838 4.23-2.301.949-1.473 1.074-3.238.348-4.844-5.227-11.523-15.973-30.564-28.91-28.729 0 0 0 0-.004.002-1.738.246-3.73 1.291-5.918 3.104-.906.752-2.09 1.062-3.254.857-1.16-.207-2.168-.914-2.758-1.932-9.285-16.024-23.707-34.442-40.929-34.442zm52.296 28.453h.039z" fill="#4c241d"/></g><circle cx="100.929" cy="224" fill="#4c241d" r="4.518"/><circle cx="76.929" cy="224" fill="#4c241d" r="4.518"/><circle cx="88.929" cy="204" fill="#4c241d" r="4.518"/><g><path d="m218.929 182v-24c-6.627 0-12-5.373-12-12h-60c0 6.627-5.373 12-12 12v24c6.627 0 12 5.373 12 12h60c0-6.627 5.372-12 12-12z" fill="#fff"/><path d="m206.929 198h-60c-2.211 0-4-1.791-4-4 0-4.412-3.59-8-8-8-2.211 0-4-1.791-4-4v-24c0-2.209 1.789-4 4-4 4.41 0 8-3.588 8-8 0-2.209 1.789-4 4-4h60c2.211 0 4 1.791 4 4 0 4.412 3.59 8 8 8 2.211 0 4 1.791 4 4v24c0 2.209-1.789 4-4 4-4.41 0-8 3.588-8 8 0 2.209-1.79 4-4 4zm-56.508-8h53.016c1.449-5.615 5.879-10.043 11.492-11.494v-17.012c-5.613-1.451-10.043-5.879-11.492-11.494h-53.016c-1.449 5.615-5.879 10.043-11.492 11.494v17.012c5.613 1.451 10.042 5.879 11.492 11.494z" fill="#4c241d"/></g></g></svg>